Coordinates
version=1
nRows=13
nColumns=40
inDegrees=yes

Units are S.I. units (second, meters, Newtons, ...)
If the header above contains a line with 'inDegrees', this indicates whether rotational values are in degrees (yes) or radians (no).

endheader
time	pelvis_tilt	pelvis_list	pelvis_rotation	pelvis_tx	pelvis_ty	pelvis_tz	hip_flexion_r	hip_adduction_r	hip_rotation_r	knee_angle_r	knee_angle_r_beta	ankle_angle_r	subtalar_angle_r	mtp_angle_r	hip_flexion_l	hip_adduction_l	hip_rotation_l	knee_angle_l	knee_angle_l_beta	ankle_angle_l	subtalar_angle_l	mtp_angle_l	lumbar_extension	lumbar_bending	lumbar_rotation	arm_flex_r	arm_add_r	arm_rot_r	elbow_flex_r	pro_sup_r	wrist_flex_r	wrist_dev_r	arm_flex_l	arm_add_l	arm_rot_l	elbow_flex_l	pro_sup_l	wrist_flex_l	wrist_dev_l
      5.00000000	    -88.94055191	     89.93641481	    -88.92941738	      0.36722316	      0.92733751	      0.56310949	     73.46689493	    -49.95025868	      8.09312171	     71.00726910	      1.23931064	     -1.84351687	      0.00000000	      0.00000000	     73.98589006	    -49.94530125	      7.13742446	     70.57152882	      1.23170554	     -0.14513329	      0.00000000	      0.00000000	    -57.25588741	     -2.45248479	      0.73119695	      0.00000000	    -16.79834456	      0.00000000	     75.15589433	     44.84541853	      0.00000000	      0.00000000	      0.00000000	    -16.79834456	      0.00000000	     75.15589433	     44.84541853	      0.00000000	      0.00000000
      5.00500000	    -88.91832594	     89.93725747	    -88.91275088	      0.36716474	      0.92733792	      0.56307935	     73.44648419	    -49.95032854	      8.11877824	     70.99370005	      1.23907381	     -1.84844429	      0.00000000	      0.00000000	     73.99860901	    -49.94544195	      7.09938555	     70.54526191	      1.23124709	     -0.16033727	      0.00000000	      0.00000000	    -57.22754119	     -2.43349277	      0.73507205	      0.00000000	    -16.79798942	      0.00000000	     75.15583408	     44.84558457	      0.00000000	      0.00000000	      0.00000000	    -16.79798942	      0.00000000	     75.15583408	     44.84558457	      0.00000000	      0.00000000
      5.01000000	    -88.91464643	     89.93740910	    -88.90959892	      0.36729077	      0.92731116	      0.56307310	     73.44232409	    -49.95036915	      8.12888388	     70.97625238	      1.23876929	     -1.84652051	      0.00000000	      0.00000000	     74.00907601	    -49.94564402	      7.09433819	     70.52049126	      1.23081476	     -0.16089105	      0.00000000	      0.00000000	    -57.29752904	     -2.42673385	      0.72766172	      0.00000000	    -16.79790023	      0.00000000	     75.15581896	     44.84562622	      0.00000000	      0.00000000	      0.00000000	    -16.79790023	      0.00000000	     75.15581896	     44.84562622	      0.00000000	      0.00000000
      5.01500000	    -88.91295957	     89.93789949	    -88.90839374	      0.36737280	      0.92727680	      0.56310547	     73.43333166	    -49.95065985	      8.12716735	     70.95619887	      1.23841930	     -1.84719154	      0.00000000	      0.00000000	     74.00634393	    -49.94580444	      7.07417543	     70.49736612	      1.23041115	     -0.16871855	      0.00000000	      0.00000000	    -57.33434235	     -2.42048865	      0.72367536	      0.00000000	    -16.79779389	      0.00000000	     75.15580093	     44.84567587	      0.00000000	      0.00000000	      0.00000000	    -16.79779389	      0.00000000	     75.15580093	     44.84567587	      0.00000000	      0.00000000
      5.02000000	    -88.91172657	     89.93832025	    -88.90754082	      0.36744285	      0.92723603	      0.56315080	     73.41776003	    -49.95080513	      8.12649423	     70.93168185	      1.23799139	     -1.84977369	      0.00000000	      0.00000000	     73.99625155	    -49.94602688	      7.05940045	     70.47304163	      1.22998661	     -0.17815739	      0.00000000	      0.00000000	    -57.37009048	     -2.41283844	      0.72004617	      0.00000000	    -16.79768779	      0.00000000	     75.15578293	     44.84572540	      0.00000000	      0.00000000	      0.00000000	    -16.79768779	      0.00000000	     75.15578293	     44.84572540	      0.00000000	      0.00000000
      5.02500000	    -88.91206775	     89.93873742	    -88.90823718	      0.36748823	      0.92719442	      0.56323149	     73.39804840	    -49.95093895	      8.11684776	     70.90440570	      1.23751533	     -1.85475477	      0.00000000	      0.00000000	     73.98760491	    -49.94605332	      7.03305022	     70.44947842	      1.22957535	     -0.18599346	      0.00000000	      0.00000000	    -57.40252158	     -2.40717522	      0.71667113	      0.00000000	    -16.79757083	      0.00000000	     75.15576310	     44.84577998	      0.00000000	      0.00000000	      0.00000000	    -16.79757083	      0.00000000	     75.15576310	     44.84577998	      0.00000000	      0.00000000
      5.03000000	    -88.91319985	     89.93869963	    -88.90952896	      0.36750231	      0.92712417	      0.56331834	     73.37813969	    -49.95098434	      8.11117989	     70.87198646	      1.23694951	     -1.86103953	      0.00000000	      0.00000000	     73.95825132	    -49.94611875	      7.02354224	     70.43331431	      1.22929324	     -0.19802329	      0.00000000	      0.00000000	    -57.44616805	     -2.39856811	      0.71217632	      0.00000000	    -16.79745965	      0.00000000	     75.15574425	     44.84583185	      0.00000000	      0.00000000	      0.00000000	    -16.79745965	      0.00000000	     75.15574425	     44.84583185	      0.00000000	      0.00000000
      5.03500000	    -88.91777204	     89.93902131	    -88.91421023	      0.36754510	      0.92706133	      0.56342027	     73.35536922	    -49.95088877	      8.09919847	     70.84541114	      1.23648568	     -1.86584236	      0.00000000	      0.00000000	     73.94964148	    -49.94591030	      7.00783526	     70.41966780	      1.22905506	     -0.20107860	      0.00000000	      0.00000000	    -57.49865597	     -2.39632383	      0.70644853	      0.00000000	    -16.79737961	      0.00000000	     75.15573068	     44.84586918	      0.00000000	      0.00000000	      0.00000000	    -16.79737961	      0.00000000	     75.15573068	     44.84586918	      0.00000000	      0.00000000
      5.04000000	    -88.91767944	     89.93902028	    -88.91407201	      0.36750808	      0.92699487	      0.56355699	     73.33295907	    -49.95091728	      8.09096133	     70.82094990	      1.23605876	     -1.87321083	      0.00000000	      0.00000000	     73.92626404	    -49.94579952	      6.98752627	     70.41437779	      1.22896273	     -0.20500111	      0.00000000	      0.00000000	    -57.54743062	     -2.39332028	      0.70156595	      0.00000000	    -16.79730220	      0.00000000	     75.15571756	     44.84590527	      0.00000000	      0.00000000	      0.00000000	    -16.79730220	      0.00000000	     75.15571756	     44.84590527	      0.00000000	      0.00000000
      5.04500000	    -88.91847809	     89.93910265	    -88.91486360	      0.36745560	      0.92692699	      0.56370889	     73.30634159	    -49.95083276	      8.07757337	     70.79726366	      1.23564535	     -1.88268607	      0.00000000	      0.00000000	     73.89771348	    -49.94586249	      6.96731235	     70.41350016	      1.22894742	     -0.20788451	      0.00000000	      0.00000000	    -57.58995725	     -2.39151102	      0.69744000	      0.00000000	    -16.79722307	      0.00000000	     75.15570415	     44.84594216	      0.00000000	      0.00000000	      0.00000000	    -16.79722307	      0.00000000	     75.15570415	     44.84594216	      0.00000000	      0.00000000
      5.05000000	    -88.92205881	     89.93888221	    -88.91845007	      0.36740045	      0.92684761	      0.56389026	     73.27328987	    -49.95064324	      8.05740212	     70.77592276	      1.23527288	     -1.89363189	      0.00000000	      0.00000000	     73.86673902	    -49.94579663	      6.94114798	     70.41727091	      1.22901323	     -0.20995987	      0.00000000	      0.00000000	    -57.62958621	     -2.39090274	      0.69355669	      0.00000000	    -16.79714404	      0.00000000	     75.15569075	     44.84597900	      0.00000000	      0.00000000	      0.00000000	    -16.79714404	      0.00000000	     75.15569075	     44.84597900	      0.00000000	      0.00000000
      5.05500000	    -88.92531632	     89.93835833	    -88.92376364	      0.36730175	      0.92670772	      0.56439739	     73.08860802	    -49.95099125	      7.91229888	     70.59088568	      1.23204338	     -2.02017496	      0.00000000	      0.00000000	     73.72847828	    -49.94611719	      6.82918190	     70.36734508	      1.22814186	     -0.24703147	      0.00000000	      0.00000000	    -57.64451596	     -2.39363349	      0.69610052	      0.00000000	    -16.79590337	      0.00000000	     75.15548047	     44.84655668	      0.00000000	      0.00000000	      0.00000000	    -16.79590337	      0.00000000	     75.15548047	     44.84655668	      0.00000000	      0.00000000
      5.06000000	    -88.93047774	     89.93846183	    -88.92857473	      0.36727357	      0.92665493	      0.56453322	     73.07202347	    -49.95087720	      7.90151251	     70.58624651	      1.23196241	     -2.01925415	      0.00000000	      0.00000000	     73.70837657	    -49.94563906	      6.82425131	     70.37001620	      1.22818848	     -0.24235586	      0.00000000	      0.00000000	    -57.71378560	     -2.39293895	      0.68929444	      0.00000000	    -16.79582742	      0.00000000	     75.15546760	     44.84659197	      0.00000000	      0.00000000	      0.00000000	    -16.79582742	      0.00000000	     75.15546760	     44.84659197	      0.00000000	      0.00000000
